<svg width="169" height="62" viewBox="0 0 169 62" fill="none" xmlns="http://www.w3.org/2000/svg">
<g clip-path="url(#clip0_3530_6078)">
<path d="M80.8381 20.531L75.2299 37.0556C74.7449 38.4864 73.3995 39.4503 71.8872 39.4503H71.8693C69.407 39.4503 67.6999 36.99 68.5644 34.6847L75.2994 16.6895C76.1619 14.3842 78.3639 12.8579 80.8262 12.8579C83.2884 12.8579 85.4924 14.3862 86.3549 16.6934L93.076 34.6867C93.9385 36.994 92.2314 39.4503 89.7711 39.4503C88.2587 39.4503 86.9133 38.4864 86.4284 37.0516L80.8381 20.531Z" fill="#231F20"/>
<path d="M132.144 20.531L126.535 37.0556C126.05 38.4864 124.705 39.4503 123.193 39.4503H123.175C120.712 39.4503 119.005 36.99 119.87 34.6847L126.605 16.6895C127.467 14.3842 129.669 12.8579 132.132 12.8579C134.594 12.8579 136.798 14.3862 137.66 16.6934L144.381 34.6867C145.244 36.994 143.537 39.4503 141.077 39.4503C139.564 39.4503 138.219 38.4864 137.734 37.0516L132.144 20.531Z" fill="#231F20"/>
<path d="M106.511 12.856C108.397 12.856 110.167 13.156 111.821 13.7582C113.474 14.3604 114.917 15.2149 116.151 16.3218C117.385 17.4308 118.361 18.8318 119.077 20.529C119.792 22.2262 120.15 24.1002 120.15 26.1511C120.15 28.2021 119.792 30.0781 119.077 31.7733C118.361 33.4705 117.385 34.8735 116.151 35.9805C114.917 37.0894 113.472 37.9439 111.821 38.5441C110.167 39.1463 108.399 39.4463 106.511 39.4463H97.0073C95.7613 39.4463 94.7517 38.4368 94.7517 37.1907V15.1116C94.7517 13.8655 95.7613 12.856 97.0073 12.856H106.511ZM106.511 32.9538C108.423 32.9538 109.985 32.3814 111.193 31.2347C112.401 30.088 113.007 28.3948 113.007 26.1531C113.007 23.9253 112.403 22.2341 111.193 21.0815C109.983 19.9288 108.423 19.3525 106.511 19.3525H103.083C102.604 19.3525 102.216 19.74 102.216 20.219V32.0873C102.216 32.5662 102.604 32.9538 103.083 32.9538H106.511Z" fill="#231F20"/>
<path d="M161.054 31.817C160.034 32.5623 158.814 32.9339 157.399 32.9339C155.611 32.9339 154.156 32.3516 153.029 31.1791C151.902 30.0086 151.34 28.3333 151.34 26.1532C151.34 23.977 151.904 22.3017 153.029 21.1312C154.156 19.9547 155.611 19.3724 157.399 19.3724C158.814 19.3724 160.034 19.744 161.054 20.4953C161.267 20.6503 161.465 20.8212 161.65 21.006C162.761 22.1249 164.323 22.6753 165.901 22.6753C168.383 22.6753 169.882 19.8613 168.435 17.8461C168.284 17.6355 168.125 17.4288 167.96 17.2281C166.696 15.68 165.158 14.5094 163.345 13.7105C161.537 12.9176 159.553 12.5142 157.403 12.5142C155.511 12.5142 153.749 12.8321 152.103 13.4641C150.458 14.0961 149.027 14.9924 147.81 16.143C146.59 17.2937 145.634 18.7305 144.929 20.4535C144.227 22.1726 143.875 24.0744 143.875 26.1512C143.875 28.2279 144.227 30.1298 144.929 31.8488C145.634 33.5738 146.59 35.0087 147.81 36.1593C149.025 37.316 150.456 38.2063 152.103 38.8382C153.751 39.4702 155.513 39.7882 157.403 39.7882C159.553 39.7882 161.539 39.3867 163.345 38.5918C165.158 37.7929 166.696 36.6224 167.96 35.0743C168.123 34.8755 168.28 34.6728 168.429 34.4661C169.882 32.453 168.379 29.635 165.897 29.635H165.881C164.311 29.635 162.757 30.1854 161.65 31.3003C161.463 31.4911 161.265 31.66 161.054 31.817Z" fill="#231F20"/>
<path d="M67.9798 46.8372L69.5101 43.425C69.5915 43.2421 69.7386 43.1309 69.9453 43.1309H69.9811C70.1877 43.1309 70.3288 43.2421 70.4103 43.425L71.9406 46.8372C71.9704 46.8909 71.9823 46.9425 71.9823 46.9902C71.9823 47.185 71.8352 47.338 71.6405 47.338C71.4696 47.338 71.3523 47.2387 71.2867 47.0856L70.9509 46.3146H68.9516L68.6038 47.1095C68.5442 47.2565 68.421 47.338 68.268 47.338C68.0792 47.338 67.9321 47.191 67.9321 47.0022C67.9321 46.9485 67.95 46.8948 67.9798 46.8372ZM70.6726 45.6726L69.9493 44.0073L69.2259 45.6726H70.6726Z" fill="#231F20"/>
<path d="M73.053 43.5303C73.053 43.3296 73.212 43.1647 73.4187 43.1647H73.4942C73.6711 43.1647 73.7704 43.2521 73.8698 43.3773L75.9287 46.0423V43.5124C75.9287 43.3177 76.0877 43.1587 76.2824 43.1587C76.4831 43.1587 76.6421 43.3177 76.6421 43.5124V46.9704C76.6421 47.1711 76.4891 47.3301 76.2884 47.3301H76.2586C76.0877 47.3301 75.9823 47.2426 75.883 47.1115L73.7645 44.371V46.9823C73.7645 47.1771 73.6055 47.336 73.4107 47.336C73.21 47.336 73.051 47.1771 73.051 46.9823V43.5303H73.053Z" fill="#231F20"/>
<path d="M77.8115 45.2592V45.2473C77.8115 44.0887 78.7058 43.1189 79.9698 43.1189C81.2337 43.1189 82.1161 44.0768 82.1161 45.2374V45.2493C82.1161 46.4079 81.2218 47.3777 79.9578 47.3777C78.6939 47.3777 77.8115 46.4179 77.8115 45.2592ZM81.3589 45.2592V45.2473C81.3589 44.4464 80.7766 43.7827 79.9578 43.7827C79.141 43.7827 78.5687 44.4365 78.5687 45.2354V45.2473C78.5687 46.0482 79.151 46.706 79.9678 46.706C80.7865 46.708 81.3589 46.0601 81.3589 45.2592Z" fill="#231F20"/>
<path d="M84.0735 43.8602H83.0739C82.8851 43.8602 82.738 43.7072 82.738 43.5243C82.738 43.3415 82.8851 43.1885 83.0739 43.1885H85.8084C85.9913 43.1885 86.1383 43.3415 86.1383 43.5243C86.1383 43.7072 85.9913 43.8602 85.8084 43.8602H84.8029V46.9783C84.8029 47.179 84.6379 47.338 84.4372 47.338C84.2365 47.338 84.0715 47.179 84.0715 46.9783L84.0735 43.8602Z" fill="#231F20"/>
<path d="M87.1648 43.5184C87.1648 43.3177 87.3238 43.1587 87.5305 43.1587C87.7312 43.1587 87.8902 43.3177 87.8902 43.5184V44.9016H89.8556V43.5184C89.8556 43.3177 90.0146 43.1587 90.2153 43.1587C90.422 43.1587 90.581 43.3177 90.581 43.5184V46.9763C90.581 47.1771 90.422 47.336 90.2153 47.336C90.0146 47.336 89.8556 47.1771 89.8556 46.9763V45.5713H87.8902V46.9763C87.8902 47.1771 87.7312 47.336 87.5305 47.336C87.3238 47.336 87.1648 47.1771 87.1648 46.9763V43.5184Z" fill="#231F20"/>
<path d="M91.9292 46.9425V43.5541C91.9292 43.3475 92.0882 43.1885 92.2949 43.1885H94.6896C94.8665 43.1885 95.0135 43.3355 95.0135 43.5124C95.0135 43.6952 94.8665 43.8363 94.6896 43.8363H92.6546V44.9075H94.4253C94.6021 44.9075 94.7492 45.0546 94.7492 45.2374C94.7492 45.4143 94.6021 45.5554 94.4253 45.5554H92.6546V46.6603H94.7194C94.8963 46.6603 95.0433 46.8074 95.0433 46.9843C95.0433 47.1671 94.8963 47.3082 94.7194 47.3082H92.2949C92.0882 47.3062 91.9292 47.1472 91.9292 46.9425Z" fill="#231F20"/>
<path d="M96.1617 43.5541C96.1617 43.3475 96.3206 43.1885 96.5273 43.1885H97.9979C98.5146 43.1885 98.922 43.3415 99.1864 43.5999C99.405 43.8224 99.5282 44.1285 99.5282 44.4882V44.5001C99.5282 45.1599 99.1466 45.5594 98.5922 45.7303L99.3811 46.7239C99.4527 46.8114 99.4984 46.8889 99.4984 47.0002C99.4984 47.2009 99.3275 47.336 99.1506 47.336C98.9856 47.336 98.8803 47.2605 98.7968 47.1472L97.7972 45.8714H96.885V46.9763C96.885 47.177 96.7261 47.336 96.5253 47.336C96.3187 47.336 96.1597 47.177 96.1597 46.9763L96.1617 43.5541ZM97.9443 45.2314C98.463 45.2314 98.7909 44.9612 98.7909 44.5438V44.5319C98.7909 44.0907 98.4729 43.8503 97.9383 43.8503H96.885V45.2334H97.9443V45.2314Z" fill="#231F20"/>
<path d="M102.765 43.5541C102.765 43.3475 102.924 43.1885 103.131 43.1885H104.302C105.595 43.1885 106.49 44.0768 106.49 45.2354V45.2473C106.49 46.406 105.595 47.3062 104.302 47.3062H103.131C102.924 47.3062 102.765 47.1472 102.765 46.9405V43.5541ZM104.3 46.6484C105.164 46.6484 105.728 46.0661 105.728 45.2593V45.2473C105.728 44.4425 105.164 43.8483 104.3 43.8483H103.489V46.6484H104.3Z" fill="#231F20"/>
<path d="M107.218 46.8372L108.748 43.425C108.83 43.2421 108.979 43.1309 109.183 43.1309H109.219C109.426 43.1309 109.567 43.2421 109.648 43.425L111.179 46.8372C111.208 46.8909 111.22 46.9425 111.22 46.9902C111.22 47.185 111.073 47.338 110.879 47.338C110.708 47.338 110.59 47.2387 110.525 47.0856L110.189 46.3146H108.19L107.842 47.1095C107.782 47.2565 107.659 47.338 107.506 47.338C107.317 47.338 107.17 47.191 107.17 47.0022C107.17 46.9485 107.188 46.8948 107.218 46.8372ZM109.911 45.6726L109.187 44.0073L108.464 45.6726H109.911Z" fill="#231F20"/>
<path d="M112.945 45.7063L111.528 43.7587C111.48 43.6892 111.446 43.6057 111.446 43.5063C111.446 43.3116 111.605 43.1585 111.812 43.1585C111.971 43.1585 112.076 43.246 112.166 43.3772L113.312 45.0306L114.477 43.3712C114.564 43.242 114.672 43.1526 114.825 43.1526C115.035 43.1526 115.178 43.3116 115.178 43.5063C115.178 43.6057 115.131 43.6951 115.079 43.7647L113.674 45.6884V46.9762C113.674 47.1769 113.515 47.3359 113.308 47.3359C113.108 47.3359 112.949 47.1769 112.949 46.9762V45.7063H112.945Z" fill="#231F20"/>
<path d="M117.994 46.8372L119.525 43.425C119.606 43.2421 119.755 43.1309 119.96 43.1309H119.996C120.202 43.1309 120.343 43.2421 120.425 43.425L121.955 46.8372C121.985 46.8909 121.997 46.9425 121.997 46.9902C121.997 47.185 121.85 47.338 121.655 47.338C121.484 47.338 121.367 47.2387 121.301 47.0856L120.966 46.3146H118.966L118.618 47.1095C118.559 47.2565 118.436 47.338 118.283 47.338C118.094 47.338 117.947 47.191 117.947 47.0022C117.947 46.9485 117.965 46.8948 117.994 46.8372ZM120.689 45.6726L119.966 44.0073L119.243 45.6726H120.689Z" fill="#231F20"/>
<path d="M123.069 43.5303C123.069 43.3296 123.228 43.1647 123.435 43.1647H123.51C123.687 43.1647 123.786 43.2521 123.886 43.3773L125.945 46.0423V43.5124C125.945 43.3177 126.104 43.1587 126.298 43.1587C126.499 43.1587 126.658 43.3177 126.658 43.5124V46.9704C126.658 47.1711 126.505 47.3301 126.304 47.3301H126.274C126.104 47.3301 125.998 47.2426 125.899 47.1115L123.78 44.371V46.9823C123.78 47.1771 123.621 47.336 123.427 47.336C123.226 47.336 123.067 47.1771 123.067 46.9823V43.5303H123.069Z" fill="#231F20"/>
<path d="M127.826 45.2592V45.2473C127.826 44.0887 128.72 43.1189 129.984 43.1189C131.248 43.1189 132.13 44.0768 132.13 45.2374V45.2493C132.13 46.4079 131.236 47.3777 129.972 47.3777C128.708 47.3777 127.826 46.4179 127.826 45.2592ZM131.373 45.2592V45.2473C131.373 44.4464 130.791 43.7827 129.972 43.7827C129.153 43.7827 128.583 44.4365 128.583 45.2354V45.2473C128.583 46.0482 129.165 46.706 129.984 46.706C130.803 46.708 131.373 46.0601 131.373 45.2592Z" fill="#231F20"/>
<path d="M134.088 43.8602H133.089C132.9 43.8602 132.753 43.7072 132.753 43.5243C132.753 43.3415 132.9 43.1885 133.089 43.1885H135.823C136.006 43.1885 136.153 43.3415 136.153 43.5243C136.153 43.7072 136.006 43.8602 135.823 43.8602H134.818V46.9783C134.818 47.179 134.653 47.338 134.452 47.338C134.251 47.338 134.086 47.179 134.086 46.9783V43.8602H134.088Z" fill="#231F20"/>
<path d="M137.182 43.5184C137.182 43.3177 137.341 43.1587 137.548 43.1587C137.748 43.1587 137.907 43.3177 137.907 43.5184V44.9016H139.873V43.5184C139.873 43.3177 140.032 43.1587 140.232 43.1587C140.437 43.1587 140.598 43.3177 140.598 43.5184V46.9763C140.598 47.1771 140.439 47.336 140.232 47.336C140.032 47.336 139.873 47.1771 139.873 46.9763V45.5713H137.907V46.9763C137.907 47.1771 137.748 47.336 137.548 47.336C137.341 47.336 137.182 47.1771 137.182 46.9763V43.5184Z" fill="#231F20"/>
<path d="M141.944 46.9425V43.5541C141.944 43.3475 142.103 43.1885 142.309 43.1885H144.704C144.881 43.1885 145.028 43.3355 145.028 43.5124C145.028 43.6952 144.881 43.8363 144.704 43.8363H142.669V44.9075H144.44C144.617 44.9075 144.764 45.0546 144.764 45.2374C144.764 45.4143 144.617 45.5554 144.44 45.5554H142.669V46.6603H144.734C144.911 46.6603 145.058 46.8074 145.058 46.9843C145.058 47.1671 144.911 47.3082 144.734 47.3082H142.309C142.103 47.3062 141.944 47.1472 141.944 46.9425Z" fill="#231F20"/>
<path d="M146.179 43.5541C146.179 43.3475 146.338 43.1885 146.545 43.1885H148.015C148.532 43.1885 148.939 43.3415 149.204 43.5999C149.42 43.8224 149.546 44.1285 149.546 44.4882V44.5001C149.546 45.1599 149.164 45.5594 148.609 45.7303L149.398 46.7239C149.468 46.8114 149.516 46.8889 149.516 47.0002C149.516 47.2009 149.345 47.336 149.168 47.336C149.003 47.336 148.898 47.2605 148.814 47.1472L147.815 45.8714H146.902V46.9763C146.902 47.177 146.743 47.336 146.543 47.336C146.336 47.336 146.177 47.177 146.177 46.9763V43.5541H146.179ZM147.96 45.2314C148.478 45.2314 148.806 44.9612 148.806 44.5438V44.5319C148.806 44.0907 148.488 43.8503 147.954 43.8503H146.9V45.2334H147.96V45.2314Z" fill="#231F20"/>
<path d="M152.6 45.2592V45.2473C152.6 44.0768 153.476 43.1189 154.722 43.1189C155.358 43.1189 155.775 43.3077 156.133 43.5839C156.209 43.6435 156.274 43.7429 156.274 43.8721C156.274 44.0728 156.115 44.2258 155.914 44.2258C155.815 44.2258 155.744 44.1901 155.698 44.1543C155.416 43.9257 155.11 43.7847 154.716 43.7847C153.933 43.7847 153.357 44.4325 153.357 45.2374V45.2493C153.357 46.0542 153.927 46.708 154.716 46.708C155.151 46.708 155.445 46.5669 155.746 46.3145C155.799 46.2668 155.875 46.231 155.964 46.231C156.147 46.231 156.306 46.3841 156.306 46.5669C156.306 46.6782 156.252 46.7676 156.189 46.8253C155.801 47.1671 155.36 47.3777 154.694 47.3777C153.492 47.3777 152.6 46.4417 152.6 45.2592Z" fill="#231F20"/>
<path d="M157.115 45.2592V45.2473C157.115 44.0887 158.009 43.1189 159.273 43.1189C160.539 43.1189 161.419 44.0768 161.419 45.2374V45.2493C161.419 46.4079 160.525 47.3777 159.261 47.3777C157.997 47.3777 157.115 46.4179 157.115 45.2592ZM160.662 45.2592V45.2473C160.662 44.4464 160.08 43.7827 159.261 43.7827C158.444 43.7827 157.874 44.4365 157.874 45.2354V45.2473C157.874 46.0482 158.456 46.706 159.273 46.706C160.092 46.708 160.662 46.0601 160.662 45.2592Z" fill="#231F20"/>
<path d="M162.629 43.5184C162.629 43.3177 162.788 43.1587 162.995 43.1587C163.196 43.1587 163.355 43.3177 163.355 43.5184V46.9763C163.355 47.1771 163.196 47.336 162.995 47.336C162.79 47.336 162.629 47.1771 162.629 46.9763V43.5184Z" fill="#231F20"/>
<path d="M164.746 43.5303C164.746 43.3296 164.905 43.1647 165.112 43.1647H165.187C165.364 43.1647 165.464 43.2521 165.563 43.3773L167.622 46.0423V43.5124C167.622 43.3177 167.781 43.1587 167.975 43.1587C168.176 43.1587 168.335 43.3177 168.335 43.5124V46.9704C168.335 47.1711 168.182 47.3301 167.981 47.3301H167.952C167.781 47.3301 167.675 47.2426 167.576 47.1115L165.46 44.371V46.9823C165.46 47.1771 165.301 47.336 165.106 47.336C164.905 47.336 164.746 47.1771 164.746 46.9823V43.5303Z" fill="#231F20"/>
<path d="M55.9031 47.3538C55.6964 47.3538 55.4857 47.2981 55.2949 47.1809C54.7484 46.845 54.5795 46.1296 54.9154 45.585C57.6618 41.1255 59.1126 35.9843 59.1126 30.7179C59.1126 16.9 49.2515 5.13705 35.6642 2.75027C35.0322 2.63898 34.6109 2.03682 34.7222 1.40684C34.8335 0.774871 35.4356 0.353558 36.0656 0.464848C43.0908 1.69898 49.5158 5.39341 54.1542 10.8645C58.8483 16.3992 61.4318 23.4522 61.4318 30.7199C61.4318 36.4155 59.8618 41.978 56.8888 46.8033C56.6741 47.159 56.2926 47.3538 55.9031 47.3538Z" fill="url(#paint0_linear_3530_6078)"/>
<path d="M50.9274 46.9166C50.6869 46.9166 50.4425 46.8411 50.2358 46.6861C49.7211 46.3025 49.6158 45.5752 49.9993 45.0624C53.1055 40.893 54.749 35.9327 54.749 30.7179C54.749 21.0258 48.9778 12.3312 40.0468 8.56724C39.4566 8.31882 39.1783 7.63717 39.4287 7.04694C39.6772 6.4567 40.3588 6.18046 40.949 6.42888C50.7426 10.5565 57.0702 20.0917 57.0702 30.7179C57.0702 36.4375 55.2677 41.8768 51.8614 46.4496C51.6309 46.7556 51.2811 46.9166 50.9274 46.9166Z" fill="url(#paint1_linear_3530_6078)"/>
<path d="M46.3135 46.0918C46.0353 46.0918 45.7551 45.9924 45.5325 45.7897C45.0595 45.3585 45.0257 44.6232 45.457 44.1502C48.8116 40.4717 50.6578 35.7021 50.6578 30.7199C50.6578 21.3397 44.0062 13.134 34.8427 11.2063C34.2147 11.0752 33.8133 10.4591 33.9464 9.83111C34.0776 9.20312 34.6936 8.80367 35.3216 8.93483C40.2442 9.97023 44.7237 12.6929 47.9332 16.6039C51.1884 20.5686 52.981 25.5826 52.981 30.7199C52.981 36.2824 50.9181 41.6084 47.174 45.7142C46.9435 45.9646 46.6295 46.0918 46.3135 46.0918Z" fill="url(#paint2_linear_3530_6078)"/>
<path d="M47.7757 31.8784C47.1338 31.8784 46.6151 31.3597 46.6151 30.7178C46.6151 21.9517 39.4826 14.8192 30.7165 14.8192C29.5281 14.8192 28.3456 14.9504 27.1969 15.2088C26.5729 15.3499 25.9509 14.9584 25.8098 14.3323C25.6687 13.7063 26.0602 13.0863 26.6862 12.9452C27.9998 12.6491 29.3571 12.498 30.7165 12.498C40.7624 12.498 48.9363 20.6719 48.9363 30.7178C48.9363 31.3597 48.4176 31.8784 47.7757 31.8784Z" fill="url(#paint3_linear_3530_6078)"/>
<path d="M43.6694 31.8785C43.0275 31.8785 42.5088 31.3598 42.5088 30.7179C42.5088 24.2174 37.2205 18.9272 30.718 18.9272C30.0761 18.9272 29.5574 18.4085 29.5574 17.7666C29.5574 17.1246 30.0761 16.606 30.718 16.606C38.4983 16.606 44.83 22.9356 44.83 30.7179C44.83 31.3598 44.3113 31.8785 43.6694 31.8785Z" fill="url(#paint4_linear_3530_6078)"/>
<path d="M37.7531 37.0494C37.5146 37.0494 37.2741 36.9759 37.0655 36.8228C36.5488 36.4433 36.4395 35.7159 36.8191 35.2012C37.7809 33.8955 38.2877 32.3454 38.2877 30.7198C38.2877 26.5464 34.8914 23.1501 30.718 23.1501C30.0761 23.1501 29.5574 22.6314 29.5574 21.9895C29.5574 21.3475 30.0761 20.8289 30.718 20.8289C36.1712 20.8289 40.6069 25.2646 40.6069 30.7178C40.6069 32.8442 39.9431 34.8693 38.6852 36.5764C38.4606 36.8864 38.1088 37.0494 37.7531 37.0494Z" fill="url(#paint5_linear_3530_6078)"/>
<path d="M30.7191 61.4381C19.3059 61.4381 8.89627 55.1661 3.55235 45.0705C3.25227 44.5042 3.46888 43.8026 4.03527 43.5025C4.60166 43.2025 5.30318 43.4191 5.60327 43.9855C10.5438 53.3199 20.1684 59.1189 30.7191 59.1189C37.4183 59.1189 43.9228 56.7421 49.0322 52.4256C49.5231 52.0123 50.2545 52.0739 50.6678 52.5628C51.0812 53.0516 51.0196 53.785 50.5307 54.1983C45.002 58.8665 37.9668 61.4381 30.7191 61.4381Z" fill="url(#paint6_linear_3530_6078)"/>
<path d="M30.7178 57.0681C19.6246 57.0681 9.65617 50.0569 5.91205 39.6214C5.69543 39.0173 6.00943 38.3535 6.61159 38.1369C7.21574 37.9203 7.8795 38.2343 8.09612 38.8364C11.5103 48.3517 20.6023 54.747 30.7178 54.747C37.0117 54.747 42.9637 52.3304 47.4729 47.9404C47.932 47.4932 48.6673 47.5032 49.1145 47.9622C49.5616 48.4213 49.5517 49.1566 49.0926 49.6038C44.1462 54.4171 37.6218 57.0681 30.7178 57.0681Z" fill="url(#paint7_linear_3530_6078)"/>
<path d="M30.7174 52.9801C20.121 52.9801 10.9376 45.4462 8.88068 35.0684C8.75548 34.4404 9.16487 33.8283 9.79286 33.7051C10.4209 33.5819 11.033 33.9893 11.1562 34.6173C12.9984 43.914 21.2239 50.6589 30.7174 50.6589C34.6205 50.6589 38.4004 49.5321 41.6477 47.3997C42.1842 47.048 42.9037 47.197 43.2554 47.7316C43.6072 48.2682 43.4581 48.9876 42.9235 49.3393C39.2967 51.7221 35.0756 52.9801 30.7174 52.9801Z" fill="url(#paint8_linear_3530_6078)"/>
<path d="M30.7186 48.9378C24.2956 48.9378 18.278 45.4978 15.0128 39.9591C14.6869 39.4066 14.8717 38.6951 15.4242 38.3692C15.9766 38.0433 16.6881 38.2281 17.014 38.7806C19.8638 43.6138 25.1163 46.6166 30.7206 46.6166C35.4981 46.6166 39.9775 44.4961 43.0142 40.8017C43.4216 40.3069 44.1529 40.2353 44.6478 40.6407C45.1426 41.0481 45.2141 41.7795 44.8087 42.2743C41.3269 46.5093 36.1937 48.9378 30.7186 48.9378Z" fill="url(#paint9_linear_3530_6078)"/>
<path d="M30.718 44.8301C24.9448 44.8301 19.8096 41.3742 17.6374 36.0243C17.397 35.4301 17.6831 34.7544 18.2754 34.5119C18.8696 34.2715 19.5453 34.5576 19.7877 35.1499C21.6021 39.6194 25.8928 42.5089 30.718 42.5089C34.4482 42.5089 37.8783 40.7998 40.13 37.8208C40.5175 37.3101 41.2448 37.2087 41.7556 37.5943C42.2663 37.9798 42.3677 38.7092 41.9821 39.2199C39.2873 42.7852 35.1815 44.8301 30.718 44.8301Z" fill="url(#paint10_linear_3530_6078)"/>
<path d="M30.7184 40.609C27.5864 40.609 24.6074 39.1026 22.7492 36.5787C22.3697 36.062 22.479 35.3366 22.9957 34.957C23.5124 34.5774 24.2377 34.6867 24.6173 35.2034C26.0403 37.1351 28.3197 38.2897 30.7164 38.2897C31.3583 38.2897 31.877 38.8084 31.877 39.4503C31.877 40.0922 31.3603 40.609 30.7184 40.609Z" fill="url(#paint11_linear_3530_6078)"/>
<path d="M1.98534 38.8462C1.46267 38.8462 0.9877 38.4885 0.858524 37.9579C0.288162 35.6009 0 33.1645 0 30.7181C0 13.7801 13.7801 0 30.7181 0C31.36 0 31.8787 0.518691 31.8787 1.1606C31.8787 1.8025 31.36 2.32119 30.7181 2.32119C15.0599 2.32119 2.31921 15.0599 2.31921 30.7181C2.31921 32.9816 2.58551 35.2333 3.11215 37.4133C3.26319 38.0354 2.87963 38.6634 2.25561 38.8144C2.16817 38.8363 2.07477 38.8462 1.98534 38.8462Z" fill="url(#paint12_linear_3530_6078)"/>
<path d="M5.87452 36.0639C5.31807 36.0639 4.8272 35.6625 4.73181 35.0941C4.49134 33.6573 4.37012 32.1847 4.37012 30.7181C4.37012 16.1887 16.1907 4.37012 30.7181 4.37012C31.1274 4.37012 31.5428 4.38005 31.9502 4.39794C32.5901 4.42775 33.085 4.97029 33.0551 5.61021C33.0253 6.25013 32.4788 6.74696 31.8429 6.71516C31.4712 6.69727 31.0917 6.68932 30.7181 6.68932C17.4686 6.68932 6.69131 17.4686 6.69131 30.7161C6.69131 32.0555 6.8026 33.3989 7.02121 34.7106C7.12654 35.3426 6.69926 35.9407 6.06729 36.0461C6.0037 36.06 5.93812 36.0639 5.87452 36.0639Z" fill="url(#paint13_linear_3530_6078)"/>
<path d="M9.61568 31.8786C8.97377 31.8786 8.45508 31.3599 8.45508 30.718C8.45508 25.0839 10.5636 19.7082 14.3932 15.5805C18.2009 11.4747 23.362 8.97069 28.9245 8.52751C29.5605 8.47584 30.1229 8.9528 30.1725 9.59272C30.2242 10.2306 29.7473 10.7911 29.1073 10.8408C18.8269 11.6595 10.7743 20.3918 10.7743 30.718C10.7763 31.3599 10.2576 31.8786 9.61568 31.8786Z" fill="url(#paint14_linear_3530_6078)"/>
<path d="M13.6832 32.8048C13.0711 32.8048 12.5584 32.3259 12.5246 31.7058C12.5067 31.3799 12.4988 31.048 12.4988 30.7181C12.4988 24.3944 15.7043 18.6153 21.0741 15.2587C21.6186 14.9189 22.334 15.0838 22.6739 15.6284C23.0137 16.1709 22.8488 16.8883 22.3042 17.2282C17.6181 20.1575 14.82 25.2013 14.82 30.7201C14.82 31.0083 14.8279 31.2984 14.8438 31.5826C14.8776 32.2225 14.3867 32.769 13.7468 32.8028C13.725 32.8028 13.7051 32.8048 13.6832 32.8048Z" fill="url(#paint15_linear_3530_6078)"/>
<path d="M17.7685 32.0595C17.1346 32.0595 16.6179 31.5507 16.6079 30.9148C16.6079 30.8492 16.606 30.7836 16.606 30.72C16.606 25.072 19.9606 19.9805 25.1495 17.7487C25.7377 17.4963 26.4213 17.7686 26.6737 18.3569C26.9261 18.9451 26.6539 19.6287 26.0656 19.8811C21.7273 21.7452 18.9252 25.9981 18.9252 30.72C18.9252 30.7756 18.9252 30.8293 18.9272 30.8849C18.9351 31.5269 18.4224 32.0515 17.7825 32.0614C17.7785 32.0595 17.7745 32.0595 17.7685 32.0595Z" fill="url(#paint16_linear_3530_6078)"/>
<path d="M21.9897 31.8786C21.3478 31.8786 20.8291 31.3599 20.8291 30.718C20.8291 27.8086 22.103 25.0581 24.3228 23.1741C24.8117 22.7588 25.543 22.8204 25.9584 23.3073C26.3737 23.7962 26.3121 24.5275 25.8252 24.9429C24.1261 26.3857 23.1503 28.4902 23.1503 30.716C23.1503 31.3599 22.6296 31.8786 21.9897 31.8786Z" fill="url(#paint17_linear_3530_6078)"/>
</g>
<defs>
<linearGradient id="paint0_linear_3530_6078" x1="62.4787" y1="41.6938" x2="38.9963" y2="2.51312" gradientUnits="userSpaceOnUse">
<stop stop-color="#231F20" stop-opacity="0"/>
<stop offset="1" stop-color="#231F20"/>
</linearGradient>
<linearGradient id="paint1_linear_3530_6078" x1="55.3056" y1="41.4298" x2="44.7969" y2="11.5902" gradientUnits="userSpaceOnUse">
<stop stop-color="#231F20" stop-opacity="0"/>
<stop offset="1" stop-color="#231F20"/>
</linearGradient>
<linearGradient id="paint2_linear_3530_6078" x1="51.0437" y1="40.7084" x2="39.8863" y2="12.9446" gradientUnits="userSpaceOnUse">
<stop stop-color="#231F20" stop-opacity="0"/>
<stop offset="1" stop-color="#231F20"/>
</linearGradient>
<linearGradient id="paint3_linear_3530_6078" x1="48.9823" y1="29.3362" x2="33.0246" y2="14.6759" gradientUnits="userSpaceOnUse">
<stop stop-color="#231F20" stop-opacity="0"/>
<stop offset="1" stop-color="#231F20"/>
</linearGradient>
<linearGradient id="paint4_linear_3530_6078" x1="42.3576" y1="26.3061" x2="32.757" y2="20.3382" gradientUnits="userSpaceOnUse">
<stop stop-color="#231F20" stop-opacity="0"/>
<stop offset="1" stop-color="#231F20"/>
</linearGradient>
<linearGradient id="paint5_linear_3530_6078" x1="39.6179" y1="33.9877" x2="31.7039" y2="19.8463" gradientUnits="userSpaceOnUse">
<stop stop-color="#231F20" stop-opacity="0"/>
<stop offset="1" stop-color="#231F20"/>
</linearGradient>
<linearGradient id="paint6_linear_3530_6078" x1="10.9091" y1="47.6124" x2="49.6357" y2="60.8456" gradientUnits="userSpaceOnUse">
<stop stop-color="#231F20" stop-opacity="0"/>
<stop offset="1" stop-color="#231F20"/>
</linearGradient>
<linearGradient id="paint7_linear_3530_6078" x1="10.5475" y1="44.2209" x2="44.3441" y2="54.3404" gradientUnits="userSpaceOnUse">
<stop stop-color="#231F20" stop-opacity="0"/>
<stop offset="1" stop-color="#231F20"/>
</linearGradient>
<linearGradient id="paint8_linear_3530_6078" x1="11.5763" y1="39.9861" x2="34.4619" y2="50.1827" gradientUnits="userSpaceOnUse">
<stop stop-color="#231F20" stop-opacity="0"/>
<stop offset="1" stop-color="#231F20"/>
</linearGradient>
<linearGradient id="paint9_linear_3530_6078" x1="19.7504" y1="43.7489" x2="42.2598" y2="42.711" gradientUnits="userSpaceOnUse">
<stop stop-color="#231F20" stop-opacity="0"/>
<stop offset="1" stop-color="#231F20"/>
</linearGradient>
<linearGradient id="paint10_linear_3530_6078" x1="22.1347" y1="39.4806" x2="42.9575" y2="40.778" gradientUnits="userSpaceOnUse">
<stop stop-color="#231F20" stop-opacity="0"/>
<stop offset="1" stop-color="#231F20"/>
</linearGradient>
<linearGradient id="paint11_linear_3530_6078" x1="25.3515" y1="37.4266" x2="34.952" y2="38.9834" gradientUnits="userSpaceOnUse">
<stop stop-color="#231F20" stop-opacity="0"/>
<stop offset="1" stop-color="#231F20"/>
</linearGradient>
<linearGradient id="paint12_linear_3530_6078" x1="24.1483" y1="-1.04122" x2="-0.242333" y2="36.388" gradientUnits="userSpaceOnUse">
<stop stop-color="#231F20" stop-opacity="0"/>
<stop offset="1" stop-color="#231F20"/>
</linearGradient>
<linearGradient id="paint13_linear_3530_6078" x1="24.5382" y1="5.77257" x2="6.11553" y2="32.4985" gradientUnits="userSpaceOnUse">
<stop stop-color="#231F20" stop-opacity="0"/>
<stop offset="1" stop-color="#231F20"/>
</linearGradient>
<linearGradient id="paint14_linear_3530_6078" x1="24.5115" y1="9.56682" x2="10.6296" y2="28.8977" gradientUnits="userSpaceOnUse">
<stop stop-color="#231F20" stop-opacity="0"/>
<stop offset="1" stop-color="#231F20"/>
</linearGradient>
<linearGradient id="paint15_linear_3530_6078" x1="19.2379" y1="16.8852" x2="15.2809" y2="30.4428" gradientUnits="userSpaceOnUse">
<stop stop-color="#231F20" stop-opacity="0"/>
<stop offset="1" stop-color="#231F20"/>
</linearGradient>
<linearGradient id="paint16_linear_3530_6078" x1="23.1293" y1="20.1858" x2="18.9129" y2="29.462" gradientUnits="userSpaceOnUse">
<stop stop-color="#231F20" stop-opacity="0"/>
<stop offset="1" stop-color="#231F20"/>
</linearGradient>
<linearGradient id="paint17_linear_3530_6078" x1="24.2754" y1="23.9149" x2="22.5239" y2="30.791" gradientUnits="userSpaceOnUse">
<stop stop-color="#231F20" stop-opacity="0"/>
<stop offset="1" stop-color="#231F20"/>
</linearGradient>
<clipPath id="clip0_3530_6078">
<rect width="169" height="61.4381" fill="white"/>
</clipPath>
</defs>
</svg>
